<?xml version="1.0" standalone="no"?><svg xmlns="http://www.w3.org/2000/svg" viewBox="0 0 1440 320"><path fill="#0099ff" fill-opacity="1" d="M0,160L12,149.3C24,139,48,117,72,133.3C96,149,120,203,144,229.3C168,256,192,256,216,261.3C240,267,264,277,288,250.7C312,224,336,160,360,117.3C384,75,408,53,432,48C456,43,480,53,504,85.3C528,117,552,171,576,170.7C600,171,624,117,648,101.3C672,85,696,107,720,133.3C744,160,768,192,792,218.7C816,245,840,267,864,272C888,277,912,267,936,245.3C960,224,984,192,1008,197.3C1032,203,1056,245,1080,240C1104,235,1128,181,1152,154.7C1176,128,1200,128,1224,149.3C1248,171,1272,213,1296,218.7C1320,224,1344,192,1368,165.3C1392,139,1416,117,1428,106.7L1440,96L1440,320L1428,320C1416,320,1392,320,1368,320C1344,320,1320,320,1296,320C1272,320,1248,320,1224,320C1200,320,1176,320,1152,320C1128,320,1104,320,1080,320C1056,320,1032,320,1008,320C984,320,960,320,936,320C912,320,888,320,864,320C840,320,816,320,792,320C768,320,744,320,720,320C696,320,672,320,648,320C624,320,600,320,576,320C552,320,528,320,504,320C480,320,456,320,432,320C408,320,384,320,360,320C336,320,312,320,288,320C264,320,240,320,216,320C192,320,168,320,144,320C120,320,96,320,72,320C48,320,24,320,12,320L0,320Z"></path></svg>