<?xml version="1.0" standalone="no"?><svg xmlns="http://www.w3.org/2000/svg" viewBox="0 0 1440 320"><path fill="#0099ff" fill-opacity="1" d="M0,192L12,192C24,192,48,192,72,197.3C96,203,120,213,144,229.3C168,245,192,267,216,234.7C240,203,264,117,288,90.7C312,64,336,96,360,96C384,96,408,64,432,48C456,32,480,32,504,42.7C528,53,552,75,576,80C600,85,624,75,648,80C672,85,696,107,720,106.7C744,107,768,85,792,90.7C816,96,840,128,864,144C888,160,912,160,936,165.3C960,171,984,181,1008,197.3C1032,213,1056,235,1080,224C1104,213,1128,171,1152,176C1176,181,1200,235,1224,234.7C1248,235,1272,181,1296,181.3C1320,181,1344,235,1368,234.7C1392,235,1416,181,1428,154.7L1440,128L1440,0L1428,0C1416,0,1392,0,1368,0C1344,0,1320,0,1296,0C1272,0,1248,0,1224,0C1200,0,1176,0,1152,0C1128,0,1104,0,1080,0C1056,0,1032,0,1008,0C984,0,960,0,936,0C912,0,888,0,864,0C840,0,816,0,792,0C768,0,744,0,720,0C696,0,672,0,648,0C624,0,600,0,576,0C552,0,528,0,504,0C480,0,456,0,432,0C408,0,384,0,360,0C336,0,312,0,288,0C264,0,240,0,216,0C192,0,168,0,144,0C120,0,96,0,72,0C48,0,24,0,12,0L0,0Z"></path></svg>